<mxfile host="app.diagrams.net" agent="Mozilla/5.0 (Windows NT 10.0; Win64; x64) AppleWebKit/537.36 (KHTML, like Gecko) Chrome/134.0.0.0 Safari/537.36" version="26.1.1" pages="4">
  <diagram name="Page-1" id="7zKPzDmCQBeUf0sHkTC4">
    <mxGraphModel dx="3163" dy="777" grid="1" gridSize="10" guides="1" tooltips="1" connect="1" arrows="1" fold="1" page="1" pageScale="1" pageWidth="827" pageHeight="1169" background="#ffffff" math="0" shadow="0">
      <root>
        <mxCell id="0" />
        <mxCell id="1" parent="0" />
        <mxCell id="4Pg1_wZAVB19BAB4jAuh-1" value="staff" style="shape=umlActor;html=1;verticalLabelPosition=bottom;verticalAlign=top;align=center;labelBackgroundColor=none;" vertex="1" parent="1">
          <mxGeometry x="120" y="580" width="60" height="75" as="geometry" />
        </mxCell>
        <mxCell id="LsU0wOQKy5e7IAzo19QR-2" value="guest" style="shape=umlActor;html=1;verticalLabelPosition=bottom;verticalAlign=top;align=center;labelBackgroundColor=none;" vertex="1" parent="1">
          <mxGeometry x="-850" y="160" width="60" height="80" as="geometry" />
        </mxCell>
        <mxCell id="LsU0wOQKy5e7IAzo19QR-3" value="user&lt;div&gt;&lt;br&gt;&lt;/div&gt;" style="shape=umlActor;html=1;verticalLabelPosition=bottom;verticalAlign=top;align=center;labelBackgroundColor=none;" vertex="1" parent="1">
          <mxGeometry x="-855" y="550" width="70" height="70" as="geometry" />
        </mxCell>
        <mxCell id="LsU0wOQKy5e7IAzo19QR-6" value="admin" style="shape=umlActor;html=1;verticalLabelPosition=bottom;verticalAlign=top;align=center;labelBackgroundColor=none;" vertex="1" parent="1">
          <mxGeometry x="120" y="140" width="60" height="80" as="geometry" />
        </mxCell>
        <mxCell id="LsU0wOQKy5e7IAzo19QR-17" value="" style="verticalLabelPosition=bottom;verticalAlign=top;html=1;shadow=0;dashed=0;strokeWidth=1;shape=mxgraph.ios.iBgFlat;labelBackgroundColor=none;" vertex="1" parent="1">
          <mxGeometry x="-703" y="80" width="680" height="650" as="geometry" />
        </mxCell>
        <mxCell id="LsU0wOQKy5e7IAzo19QR-20" value="spa booking" style="text;strokeColor=none;fillColor=none;html=1;fontSize=24;fontStyle=1;verticalAlign=middle;align=center;labelBackgroundColor=none;" vertex="1" parent="1">
          <mxGeometry x="-403" y="90" width="100" height="40" as="geometry" />
        </mxCell>
        <mxCell id="LsU0wOQKy5e7IAzo19QR-40" style="edgeStyle=entityRelationEdgeStyle;rounded=0;orthogonalLoop=1;jettySize=auto;html=1;startArrow=none;endArrow=none;segment=10;curved=1;sourcePerimeterSpacing=0;targetPerimeterSpacing=0;labelBackgroundColor=none;fontColor=default;" edge="1" parent="1" source="LsU0wOQKy5e7IAzo19QR-21" target="LsU0wOQKy5e7IAzo19QR-3">
          <mxGeometry relative="1" as="geometry" />
        </mxCell>
        <mxCell id="LsU0wOQKy5e7IAzo19QR-21" value="register" style="ellipse;whiteSpace=wrap;html=1;align=center;newEdgeStyle={&quot;edgeStyle&quot;:&quot;entityRelationEdgeStyle&quot;,&quot;startArrow&quot;:&quot;none&quot;,&quot;endArrow&quot;:&quot;none&quot;,&quot;segment&quot;:10,&quot;curved&quot;:1,&quot;sourcePerimeterSpacing&quot;:0,&quot;targetPerimeterSpacing&quot;:0};treeFolding=1;treeMoving=1;labelBackgroundColor=none;" vertex="1" parent="1">
          <mxGeometry x="-670" y="450" width="100" height="40" as="geometry" />
        </mxCell>
        <mxCell id="LsU0wOQKy5e7IAzo19QR-22" value="login" style="ellipse;whiteSpace=wrap;html=1;align=center;newEdgeStyle={&quot;edgeStyle&quot;:&quot;entityRelationEdgeStyle&quot;,&quot;startArrow&quot;:&quot;none&quot;,&quot;endArrow&quot;:&quot;none&quot;,&quot;segment&quot;:10,&quot;curved&quot;:1,&quot;sourcePerimeterSpacing&quot;:0,&quot;targetPerimeterSpacing&quot;:0};treeFolding=1;treeMoving=1;labelBackgroundColor=none;" vertex="1" parent="1">
          <mxGeometry x="-670" y="540" width="100" height="40" as="geometry" />
        </mxCell>
        <mxCell id="LsU0wOQKy5e7IAzo19QR-37" style="edgeStyle=entityRelationEdgeStyle;rounded=0;orthogonalLoop=1;jettySize=auto;html=1;startArrow=none;endArrow=none;segment=10;curved=1;sourcePerimeterSpacing=0;targetPerimeterSpacing=0;labelBackgroundColor=none;fontColor=default;" edge="1" parent="1" source="LsU0wOQKy5e7IAzo19QR-23" target="LsU0wOQKy5e7IAzo19QR-2">
          <mxGeometry relative="1" as="geometry" />
        </mxCell>
        <mxCell id="LsU0wOQKy5e7IAzo19QR-23" value="View Services" style="ellipse;whiteSpace=wrap;html=1;align=center;newEdgeStyle={&quot;edgeStyle&quot;:&quot;entityRelationEdgeStyle&quot;,&quot;startArrow&quot;:&quot;none&quot;,&quot;endArrow&quot;:&quot;none&quot;,&quot;segment&quot;:10,&quot;curved&quot;:1,&quot;sourcePerimeterSpacing&quot;:0,&quot;targetPerimeterSpacing&quot;:0};treeFolding=1;treeMoving=1;labelBackgroundColor=none;" vertex="1" parent="1">
          <mxGeometry x="-660" y="140" width="100" height="40" as="geometry" />
        </mxCell>
        <mxCell id="LsU0wOQKy5e7IAzo19QR-39" style="edgeStyle=entityRelationEdgeStyle;rounded=0;orthogonalLoop=1;jettySize=auto;html=1;startArrow=none;endArrow=none;segment=10;curved=1;sourcePerimeterSpacing=0;targetPerimeterSpacing=0;labelBackgroundColor=none;fontColor=default;" edge="1" parent="1" source="LsU0wOQKy5e7IAzo19QR-24" target="LsU0wOQKy5e7IAzo19QR-2">
          <mxGeometry relative="1" as="geometry">
            <mxPoint x="-770" y="230" as="targetPoint" />
          </mxGeometry>
        </mxCell>
        <mxCell id="LsU0wOQKy5e7IAzo19QR-24" value="Pricing" style="ellipse;whiteSpace=wrap;html=1;align=center;newEdgeStyle={&quot;edgeStyle&quot;:&quot;entityRelationEdgeStyle&quot;,&quot;startArrow&quot;:&quot;none&quot;,&quot;endArrow&quot;:&quot;none&quot;,&quot;segment&quot;:10,&quot;curved&quot;:1,&quot;sourcePerimeterSpacing&quot;:0,&quot;targetPerimeterSpacing&quot;:0};treeFolding=1;treeMoving=1;labelBackgroundColor=none;" vertex="1" parent="1">
          <mxGeometry x="-660" y="210" width="100" height="40" as="geometry" />
        </mxCell>
        <mxCell id="LsU0wOQKy5e7IAzo19QR-43" style="edgeStyle=entityRelationEdgeStyle;rounded=0;orthogonalLoop=1;jettySize=auto;html=1;startArrow=none;endArrow=none;segment=10;curved=1;sourcePerimeterSpacing=0;targetPerimeterSpacing=0;labelBackgroundColor=none;fontColor=default;" edge="1" parent="1" source="LsU0wOQKy5e7IAzo19QR-25" target="LsU0wOQKy5e7IAzo19QR-3">
          <mxGeometry relative="1" as="geometry" />
        </mxCell>
        <mxCell id="LsU0wOQKy5e7IAzo19QR-25" value="Manage Profile" style="ellipse;whiteSpace=wrap;html=1;align=center;newEdgeStyle={&quot;edgeStyle&quot;:&quot;entityRelationEdgeStyle&quot;,&quot;startArrow&quot;:&quot;none&quot;,&quot;endArrow&quot;:&quot;none&quot;,&quot;segment&quot;:10,&quot;curved&quot;:1,&quot;sourcePerimeterSpacing&quot;:0,&quot;targetPerimeterSpacing&quot;:0};treeFolding=1;treeMoving=1;labelBackgroundColor=none;" vertex="1" parent="1">
          <mxGeometry x="-660" y="640" width="100" height="40" as="geometry" />
        </mxCell>
        <mxCell id="LsU0wOQKy5e7IAzo19QR-26" value="Book a Service" style="ellipse;whiteSpace=wrap;html=1;align=center;newEdgeStyle={&quot;edgeStyle&quot;:&quot;entityRelationEdgeStyle&quot;,&quot;startArrow&quot;:&quot;none&quot;,&quot;endArrow&quot;:&quot;none&quot;,&quot;segment&quot;:10,&quot;curved&quot;:1,&quot;sourcePerimeterSpacing&quot;:0,&quot;targetPerimeterSpacing&quot;:0};treeFolding=1;treeMoving=1;labelBackgroundColor=none;" vertex="1" parent="1">
          <mxGeometry x="-530" y="540" width="100" height="40" as="geometry" />
        </mxCell>
        <mxCell id="LsU0wOQKy5e7IAzo19QR-27" value="Make&amp;nbsp;deposit" style="ellipse;whiteSpace=wrap;html=1;align=center;newEdgeStyle={&quot;edgeStyle&quot;:&quot;entityRelationEdgeStyle&quot;,&quot;startArrow&quot;:&quot;none&quot;,&quot;endArrow&quot;:&quot;none&quot;,&quot;segment&quot;:10,&quot;curved&quot;:1,&quot;sourcePerimeterSpacing&quot;:0,&quot;targetPerimeterSpacing&quot;:0};treeFolding=1;treeMoving=1;labelBackgroundColor=none;" vertex="1" parent="1">
          <mxGeometry x="-390" y="540" width="100" height="40" as="geometry" />
        </mxCell>
        <mxCell id="LsU0wOQKy5e7IAzo19QR-28" value="Cancel Bookings" style="ellipse;whiteSpace=wrap;html=1;align=center;newEdgeStyle={&quot;edgeStyle&quot;:&quot;entityRelationEdgeStyle&quot;,&quot;startArrow&quot;:&quot;none&quot;,&quot;endArrow&quot;:&quot;none&quot;,&quot;segment&quot;:10,&quot;curved&quot;:1,&quot;sourcePerimeterSpacing&quot;:0,&quot;targetPerimeterSpacing&quot;:0};treeFolding=1;treeMoving=1;labelBackgroundColor=none;" vertex="1" parent="1">
          <mxGeometry x="-513" y="430" width="100" height="40" as="geometry" />
        </mxCell>
        <mxCell id="LsU0wOQKy5e7IAzo19QR-92" style="edgeStyle=entityRelationEdgeStyle;rounded=0;orthogonalLoop=1;jettySize=auto;html=1;startArrow=none;endArrow=none;segment=10;curved=1;sourcePerimeterSpacing=0;targetPerimeterSpacing=0;labelBackgroundColor=none;fontColor=default;" edge="1" parent="1" source="LsU0wOQKy5e7IAzo19QR-31">
          <mxGeometry relative="1" as="geometry">
            <mxPoint x="120" y="620" as="targetPoint" />
            <Array as="points">
              <mxPoint x="120" y="630" />
            </Array>
          </mxGeometry>
        </mxCell>
        <mxCell id="LsU0wOQKy5e7IAzo19QR-31" value="Manage Blog and Video Content" style="ellipse;whiteSpace=wrap;html=1;align=center;newEdgeStyle={&quot;edgeStyle&quot;:&quot;entityRelationEdgeStyle&quot;,&quot;startArrow&quot;:&quot;none&quot;,&quot;endArrow&quot;:&quot;none&quot;,&quot;segment&quot;:10,&quot;curved&quot;:1,&quot;sourcePerimeterSpacing&quot;:0,&quot;targetPerimeterSpacing&quot;:0};treeFolding=1;treeMoving=1;labelBackgroundColor=none;" vertex="1" parent="1">
          <mxGeometry x="-210" y="620" width="110" height="50" as="geometry" />
        </mxCell>
        <mxCell id="LsU0wOQKy5e7IAzo19QR-32" value="View Work Schedule" style="ellipse;whiteSpace=wrap;html=1;align=center;newEdgeStyle={&quot;edgeStyle&quot;:&quot;entityRelationEdgeStyle&quot;,&quot;startArrow&quot;:&quot;none&quot;,&quot;endArrow&quot;:&quot;none&quot;,&quot;segment&quot;:10,&quot;curved&quot;:1,&quot;sourcePerimeterSpacing&quot;:0,&quot;targetPerimeterSpacing&quot;:0};treeFolding=1;treeMoving=1;labelBackgroundColor=none;" vertex="1" parent="1">
          <mxGeometry x="-220" y="530" width="100" height="40" as="geometry" />
        </mxCell>
        <mxCell id="LsU0wOQKy5e7IAzo19QR-53" style="edgeStyle=entityRelationEdgeStyle;rounded=0;orthogonalLoop=1;jettySize=auto;html=1;startArrow=none;endArrow=none;segment=10;curved=1;sourcePerimeterSpacing=0;targetPerimeterSpacing=0;labelBackgroundColor=none;fontColor=default;" edge="1" parent="1" source="LsU0wOQKy5e7IAzo19QR-33" target="LsU0wOQKy5e7IAzo19QR-6">
          <mxGeometry relative="1" as="geometry" />
        </mxCell>
        <mxCell id="LsU0wOQKy5e7IAzo19QR-33" value="Manage Bookings" style="ellipse;whiteSpace=wrap;html=1;align=center;newEdgeStyle={&quot;edgeStyle&quot;:&quot;entityRelationEdgeStyle&quot;,&quot;startArrow&quot;:&quot;none&quot;,&quot;endArrow&quot;:&quot;none&quot;,&quot;segment&quot;:10,&quot;curved&quot;:1,&quot;sourcePerimeterSpacing&quot;:0,&quot;targetPerimeterSpacing&quot;:0};treeFolding=1;treeMoving=1;labelBackgroundColor=none;" vertex="1" parent="1">
          <mxGeometry x="-180" y="240" width="100" height="40" as="geometry" />
        </mxCell>
        <mxCell id="LsU0wOQKy5e7IAzo19QR-54" style="edgeStyle=entityRelationEdgeStyle;rounded=0;orthogonalLoop=1;jettySize=auto;html=1;startArrow=none;endArrow=none;segment=10;curved=1;sourcePerimeterSpacing=0;targetPerimeterSpacing=0;labelBackgroundColor=none;fontColor=default;" edge="1" parent="1" source="LsU0wOQKy5e7IAzo19QR-34" target="LsU0wOQKy5e7IAzo19QR-6">
          <mxGeometry relative="1" as="geometry" />
        </mxCell>
        <mxCell id="LsU0wOQKy5e7IAzo19QR-34" value="Assign Staff" style="ellipse;whiteSpace=wrap;html=1;align=center;newEdgeStyle={&quot;edgeStyle&quot;:&quot;entityRelationEdgeStyle&quot;,&quot;startArrow&quot;:&quot;none&quot;,&quot;endArrow&quot;:&quot;none&quot;,&quot;segment&quot;:10,&quot;curved&quot;:1,&quot;sourcePerimeterSpacing&quot;:0,&quot;targetPerimeterSpacing&quot;:0};treeFolding=1;treeMoving=1;labelBackgroundColor=none;" vertex="1" parent="1">
          <mxGeometry x="-230" y="430" width="100" height="40" as="geometry" />
        </mxCell>
        <mxCell id="LsU0wOQKy5e7IAzo19QR-52" style="edgeStyle=entityRelationEdgeStyle;rounded=0;orthogonalLoop=1;jettySize=auto;html=1;startArrow=none;endArrow=none;segment=10;curved=1;sourcePerimeterSpacing=0;targetPerimeterSpacing=0;labelBackgroundColor=none;fontColor=default;" edge="1" parent="1" source="LsU0wOQKy5e7IAzo19QR-35" target="LsU0wOQKy5e7IAzo19QR-6">
          <mxGeometry relative="1" as="geometry" />
        </mxCell>
        <mxCell id="LsU0wOQKy5e7IAzo19QR-35" value="Manage promotion" style="ellipse;whiteSpace=wrap;html=1;align=center;newEdgeStyle={&quot;edgeStyle&quot;:&quot;entityRelationEdgeStyle&quot;,&quot;startArrow&quot;:&quot;none&quot;,&quot;endArrow&quot;:&quot;none&quot;,&quot;segment&quot;:10,&quot;curved&quot;:1,&quot;sourcePerimeterSpacing&quot;:0,&quot;targetPerimeterSpacing&quot;:0};treeFolding=1;treeMoving=1;labelBackgroundColor=none;" vertex="1" parent="1">
          <mxGeometry x="-180" y="160" width="100" height="40" as="geometry" />
        </mxCell>
        <mxCell id="LsU0wOQKy5e7IAzo19QR-55" style="edgeStyle=entityRelationEdgeStyle;rounded=0;orthogonalLoop=1;jettySize=auto;html=1;startArrow=none;endArrow=none;segment=10;curved=1;sourcePerimeterSpacing=0;targetPerimeterSpacing=0;labelBackgroundColor=none;fontColor=default;" edge="1" parent="1" source="LsU0wOQKy5e7IAzo19QR-36" target="LsU0wOQKy5e7IAzo19QR-6">
          <mxGeometry relative="1" as="geometry" />
        </mxCell>
        <mxCell id="LsU0wOQKy5e7IAzo19QR-36" value="manage&amp;nbsp; dashboard&amp;nbsp;" style="ellipse;whiteSpace=wrap;html=1;align=center;newEdgeStyle={&quot;edgeStyle&quot;:&quot;entityRelationEdgeStyle&quot;,&quot;startArrow&quot;:&quot;none&quot;,&quot;endArrow&quot;:&quot;none&quot;,&quot;segment&quot;:10,&quot;curved&quot;:1,&quot;sourcePerimeterSpacing&quot;:0,&quot;targetPerimeterSpacing&quot;:0};treeFolding=1;treeMoving=1;labelBackgroundColor=none;" vertex="1" parent="1">
          <mxGeometry x="-240" y="340" width="100" height="40" as="geometry" />
        </mxCell>
        <mxCell id="LsU0wOQKy5e7IAzo19QR-58" value="" style="endArrow=classic;html=1;rounded=0;entryX=0.5;entryY=0;entryDx=0;entryDy=0;exitX=0.5;exitY=1;exitDx=0;exitDy=0;labelBackgroundColor=none;fontColor=default;" edge="1" parent="1" source="LsU0wOQKy5e7IAzo19QR-21" target="LsU0wOQKy5e7IAzo19QR-22">
          <mxGeometry width="50" height="50" relative="1" as="geometry">
            <mxPoint x="-580" y="510" as="sourcePoint" />
            <mxPoint x="-530" y="460" as="targetPoint" />
            <Array as="points">
              <mxPoint x="-610" y="490" />
            </Array>
          </mxGeometry>
        </mxCell>
        <mxCell id="LsU0wOQKy5e7IAzo19QR-63" value="" style="endArrow=classic;html=1;rounded=0;entryX=0;entryY=0.5;entryDx=0;entryDy=0;exitX=1;exitY=0.5;exitDx=0;exitDy=0;labelBackgroundColor=none;fontColor=default;" edge="1" parent="1" source="LsU0wOQKy5e7IAzo19QR-22" target="LsU0wOQKy5e7IAzo19QR-26">
          <mxGeometry width="50" height="50" relative="1" as="geometry">
            <mxPoint x="-620" y="510" as="sourcePoint" />
            <mxPoint x="-570" y="460" as="targetPoint" />
          </mxGeometry>
        </mxCell>
        <mxCell id="LsU0wOQKy5e7IAzo19QR-65" value="" style="endArrow=classic;html=1;rounded=0;entryX=0;entryY=0.5;entryDx=0;entryDy=0;exitX=1;exitY=0.5;exitDx=0;exitDy=0;labelBackgroundColor=none;fontColor=default;" edge="1" parent="1" source="LsU0wOQKy5e7IAzo19QR-26" target="LsU0wOQKy5e7IAzo19QR-27">
          <mxGeometry width="50" height="50" relative="1" as="geometry">
            <mxPoint x="-440" y="540" as="sourcePoint" />
            <mxPoint x="-410" y="540" as="targetPoint" />
          </mxGeometry>
        </mxCell>
        <mxCell id="LsU0wOQKy5e7IAzo19QR-66" value="" style="endArrow=classic;html=1;rounded=0;exitX=0.5;exitY=0;exitDx=0;exitDy=0;entryX=0.5;entryY=1;entryDx=0;entryDy=0;labelBackgroundColor=none;fontColor=default;" edge="1" parent="1" source="LsU0wOQKy5e7IAzo19QR-26" target="LsU0wOQKy5e7IAzo19QR-28">
          <mxGeometry width="50" height="50" relative="1" as="geometry">
            <mxPoint x="-620" y="510" as="sourcePoint" />
            <mxPoint x="-570" y="460" as="targetPoint" />
            <Array as="points" />
          </mxGeometry>
        </mxCell>
        <mxCell id="LsU0wOQKy5e7IAzo19QR-56" style="edgeStyle=entityRelationEdgeStyle;rounded=0;orthogonalLoop=1;jettySize=auto;html=1;startArrow=none;endArrow=none;segment=10;curved=1;sourcePerimeterSpacing=0;targetPerimeterSpacing=0;labelBackgroundColor=none;fontColor=default;" edge="1" parent="1" source="LsU0wOQKy5e7IAzo19QR-32">
          <mxGeometry relative="1" as="geometry">
            <mxPoint x="120" y="618" as="targetPoint" />
          </mxGeometry>
        </mxCell>
        <mxCell id="LsU0wOQKy5e7IAzo19QR-73" value="Pay OS&amp;nbsp;&lt;br&gt;(checking payment status)" style="rounded=1;whiteSpace=wrap;html=1;labelBackgroundColor=none;" vertex="1" parent="1">
          <mxGeometry x="-450" y="280" width="120" height="60" as="geometry" />
        </mxCell>
        <mxCell id="LsU0wOQKy5e7IAzo19QR-76" value="" style="endArrow=classic;html=1;rounded=0;entryX=0.393;entryY=0.049;entryDx=0;entryDy=0;entryPerimeter=0;exitX=0.424;exitY=0.957;exitDx=0;exitDy=0;exitPerimeter=0;labelBackgroundColor=none;fontColor=default;" edge="1" parent="1" source="LsU0wOQKy5e7IAzo19QR-34" target="LsU0wOQKy5e7IAzo19QR-32">
          <mxGeometry width="50" height="50" relative="1" as="geometry">
            <mxPoint x="-100" y="450" as="sourcePoint" />
            <mxPoint x="-50" y="400" as="targetPoint" />
            <Array as="points" />
          </mxGeometry>
        </mxCell>
        <mxCell id="LsU0wOQKy5e7IAzo19QR-77" value="" style="endArrow=classic;html=1;rounded=0;exitX=0.397;exitY=0.081;exitDx=0;exitDy=0;entryX=0.59;entryY=0.962;entryDx=0;entryDy=0;entryPerimeter=0;exitPerimeter=0;labelBackgroundColor=none;fontColor=default;" edge="1" parent="1" source="LsU0wOQKy5e7IAzo19QR-27" target="LsU0wOQKy5e7IAzo19QR-73">
          <mxGeometry width="50" height="50" relative="1" as="geometry">
            <mxPoint x="-100" y="450" as="sourcePoint" />
            <mxPoint x="-340" y="400" as="targetPoint" />
          </mxGeometry>
        </mxCell>
        <mxCell id="LsU0wOQKy5e7IAzo19QR-79" value="" style="endArrow=classic;html=1;rounded=0;entryX=0;entryY=1;entryDx=0;entryDy=0;exitX=1;exitY=0.5;exitDx=0;exitDy=0;labelBackgroundColor=none;fontColor=default;" edge="1" parent="1" source="LsU0wOQKy5e7IAzo19QR-73" target="LsU0wOQKy5e7IAzo19QR-33">
          <mxGeometry width="50" height="50" relative="1" as="geometry">
            <mxPoint x="-290" y="380" as="sourcePoint" />
            <mxPoint x="-50" y="400" as="targetPoint" />
            <Array as="points" />
          </mxGeometry>
        </mxCell>
        <mxCell id="LsU0wOQKy5e7IAzo19QR-80" value="finishing services&amp;nbsp;" style="ellipse;whiteSpace=wrap;html=1;align=center;newEdgeStyle={&quot;edgeStyle&quot;:&quot;entityRelationEdgeStyle&quot;,&quot;startArrow&quot;:&quot;none&quot;,&quot;endArrow&quot;:&quot;none&quot;,&quot;segment&quot;:10,&quot;curved&quot;:1,&quot;sourcePerimeterSpacing&quot;:0,&quot;targetPerimeterSpacing&quot;:0};treeFolding=1;treeMoving=1;labelBackgroundColor=none;" vertex="1" parent="1">
          <mxGeometry x="-330" y="180" width="100" height="40" as="geometry" />
        </mxCell>
        <mxCell id="LsU0wOQKy5e7IAzo19QR-81" value="" style="endArrow=classic;html=1;rounded=0;entryX=1;entryY=0.5;entryDx=0;entryDy=0;exitX=0.019;exitY=0.733;exitDx=0;exitDy=0;exitPerimeter=0;labelBackgroundColor=none;fontColor=default;" edge="1" parent="1" source="LsU0wOQKy5e7IAzo19QR-35" target="LsU0wOQKy5e7IAzo19QR-80">
          <mxGeometry width="50" height="50" relative="1" as="geometry">
            <mxPoint x="-100" y="450" as="sourcePoint" />
            <mxPoint x="-50" y="400" as="targetPoint" />
          </mxGeometry>
        </mxCell>
        <mxCell id="LsU0wOQKy5e7IAzo19QR-83" value="" style="endArrow=classic;html=1;rounded=0;entryX=0.5;entryY=1;entryDx=0;entryDy=0;exitX=0.435;exitY=-0.043;exitDx=0;exitDy=0;exitPerimeter=0;labelBackgroundColor=none;fontColor=default;" edge="1" parent="1" source="LsU0wOQKy5e7IAzo19QR-34" target="LsU0wOQKy5e7IAzo19QR-36">
          <mxGeometry width="50" height="50" relative="1" as="geometry">
            <mxPoint x="-100" y="450" as="sourcePoint" />
            <mxPoint x="-50" y="400" as="targetPoint" />
          </mxGeometry>
        </mxCell>
        <mxCell id="LsU0wOQKy5e7IAzo19QR-84" value="" style="endArrow=classic;html=1;rounded=0;exitX=0.5;exitY=1;exitDx=0;exitDy=0;labelBackgroundColor=none;fontColor=default;" edge="1" parent="1" source="LsU0wOQKy5e7IAzo19QR-33" target="LsU0wOQKy5e7IAzo19QR-36">
          <mxGeometry width="50" height="50" relative="1" as="geometry">
            <mxPoint x="-100" y="450" as="sourcePoint" />
            <mxPoint x="-50" y="400" as="targetPoint" />
          </mxGeometry>
        </mxCell>
        <mxCell id="LsU0wOQKy5e7IAzo19QR-85" value="payments&amp;nbsp;" style="ellipse;whiteSpace=wrap;html=1;align=center;newEdgeStyle={&quot;edgeStyle&quot;:&quot;entityRelationEdgeStyle&quot;,&quot;startArrow&quot;:&quot;none&quot;,&quot;endArrow&quot;:&quot;none&quot;,&quot;segment&quot;:10,&quot;curved&quot;:1,&quot;sourcePerimeterSpacing&quot;:0,&quot;targetPerimeterSpacing&quot;:0};treeFolding=1;treeMoving=1;labelBackgroundColor=none;" vertex="1" parent="1">
          <mxGeometry x="-660" y="380" width="100" height="40" as="geometry" />
        </mxCell>
        <mxCell id="LsU0wOQKy5e7IAzo19QR-88" value="" style="endArrow=none;html=1;rounded=0;entryX=0;entryY=0.5;entryDx=0;entryDy=0;labelBackgroundColor=none;fontColor=default;" edge="1" parent="1" target="LsU0wOQKy5e7IAzo19QR-85">
          <mxGeometry width="50" height="50" relative="1" as="geometry">
            <mxPoint x="-780" y="580" as="sourcePoint" />
            <mxPoint x="-50" y="290" as="targetPoint" />
          </mxGeometry>
        </mxCell>
        <mxCell id="LsU0wOQKy5e7IAzo19QR-89" value="" style="endArrow=classic;startArrow=classic;html=1;rounded=0;exitX=1;exitY=0;exitDx=0;exitDy=0;entryX=0;entryY=0.75;entryDx=0;entryDy=0;labelBackgroundColor=none;fontColor=default;" edge="1" parent="1" source="LsU0wOQKy5e7IAzo19QR-85" target="LsU0wOQKy5e7IAzo19QR-73">
          <mxGeometry width="50" height="50" relative="1" as="geometry">
            <mxPoint x="-100" y="450" as="sourcePoint" />
            <mxPoint x="-50" y="400" as="targetPoint" />
          </mxGeometry>
        </mxCell>
        <mxCell id="LsU0wOQKy5e7IAzo19QR-90" value="" style="endArrow=classic;startArrow=classic;html=1;rounded=0;exitX=0.5;exitY=0;exitDx=0;exitDy=0;entryX=0.256;entryY=0.917;entryDx=0;entryDy=0;entryPerimeter=0;labelBackgroundColor=none;fontColor=default;" edge="1" parent="1" source="LsU0wOQKy5e7IAzo19QR-73" target="LsU0wOQKy5e7IAzo19QR-80">
          <mxGeometry width="50" height="50" relative="1" as="geometry">
            <mxPoint x="-100" y="450" as="sourcePoint" />
            <mxPoint x="-50" y="400" as="targetPoint" />
          </mxGeometry>
        </mxCell>
        <mxCell id="LsU0wOQKy5e7IAzo19QR-91" value="" style="endArrow=classic;html=1;rounded=0;exitX=0.7;exitY=1;exitDx=0;exitDy=0;exitPerimeter=0;entryX=0.303;entryY=0.075;entryDx=0;entryDy=0;entryPerimeter=0;labelBackgroundColor=none;fontColor=default;" edge="1" parent="1" source="LsU0wOQKy5e7IAzo19QR-80" target="LsU0wOQKy5e7IAzo19QR-36">
          <mxGeometry width="50" height="50" relative="1" as="geometry">
            <mxPoint x="-100" y="450" as="sourcePoint" />
            <mxPoint x="-50" y="400" as="targetPoint" />
          </mxGeometry>
        </mxCell>
        <mxCell id="LsU0wOQKy5e7IAzo19QR-94" value="" style="endArrow=classic;html=1;rounded=0;entryX=0.5;entryY=0;entryDx=0;entryDy=0;exitX=0.592;exitY=0.956;exitDx=0;exitDy=0;exitPerimeter=0;labelBackgroundColor=none;fontColor=default;" edge="1" parent="1" source="LsU0wOQKy5e7IAzo19QR-22" target="LsU0wOQKy5e7IAzo19QR-25">
          <mxGeometry width="50" height="50" relative="1" as="geometry">
            <mxPoint x="-150" y="520" as="sourcePoint" />
            <mxPoint x="-100" y="470" as="targetPoint" />
          </mxGeometry>
        </mxCell>
        <mxCell id="LsU0wOQKy5e7IAzo19QR-98" value="" style="endArrow=none;html=1;rounded=0;labelBackgroundColor=none;fontColor=default;" edge="1" parent="1" source="LsU0wOQKy5e7IAzo19QR-96">
          <mxGeometry width="50" height="50" relative="1" as="geometry">
            <mxPoint x="-770" y="580" as="sourcePoint" />
            <mxPoint x="-670" y="570" as="targetPoint" />
          </mxGeometry>
        </mxCell>
        <mxCell id="LsU0wOQKy5e7IAzo19QR-99" value="" style="endArrow=none;html=1;rounded=0;entryX=0;entryY=1;entryDx=0;entryDy=0;labelBackgroundColor=none;fontColor=default;" edge="1" parent="1" target="LsU0wOQKy5e7IAzo19QR-22">
          <mxGeometry width="50" height="50" relative="1" as="geometry">
            <mxPoint x="-770" y="580" as="sourcePoint" />
            <mxPoint x="-670" y="570" as="targetPoint" />
          </mxGeometry>
        </mxCell>
        <mxCell id="LsU0wOQKy5e7IAzo19QR-96" value="authentication&amp;nbsp;" style="text;html=1;align=center;verticalAlign=middle;whiteSpace=wrap;rounded=0;labelBackgroundColor=none;" vertex="1" parent="1">
          <mxGeometry x="-740" y="555" width="60" height="30" as="geometry" />
        </mxCell>
      </root>
    </mxGraphModel>
  </diagram>
  <diagram id="hAhKLGBfqLEtQ5iFWKdg" name="Page-2">
    <mxGraphModel grid="1" page="1" gridSize="10" guides="1" tooltips="1" connect="1" arrows="1" fold="1" pageScale="1" pageWidth="827" pageHeight="1169" math="0" shadow="0">
      <root>
        <mxCell id="0" />
        <mxCell id="1" parent="0" />
      </root>
    </mxGraphModel>
  </diagram>
  <diagram id="pZd_e3O9YMNWygoVmcwt" name="Page-3">
    <mxGraphModel grid="1" page="1" gridSize="10" guides="1" tooltips="1" connect="1" arrows="1" fold="1" pageScale="1" pageWidth="827" pageHeight="1169" math="0" shadow="0">
      <root>
        <mxCell id="0" />
        <mxCell id="1" parent="0" />
      </root>
    </mxGraphModel>
  </diagram>
  <diagram id="JKDq4heS7d6cze6Frc4q" name="Page-4">
    <mxGraphModel grid="1" page="1" gridSize="10" guides="1" tooltips="1" connect="1" arrows="1" fold="1" pageScale="1" pageWidth="827" pageHeight="1169" math="0" shadow="0">
      <root>
        <mxCell id="0" />
        <mxCell id="1" parent="0" />
      </root>
    </mxGraphModel>
  </diagram>
</mxfile>
